<?xml version="1.0" encoding="UTF-8" standalone="no"?><!DOCTYPE svg PUBLIC "-//W3C//DTD SVG 1.1//EN" "http://www.w3.org/Graphics/SVG/1.1/DTD/svg11.dtd"><svg width="100%" height="100%" viewBox="0 0 634 634" version="1.1" xmlns="http://www.w3.org/2000/svg" xmlns:xlink="http://www.w3.org/1999/xlink" xml:space="preserve" xmlns:serif="http://www.serif.com/" style="fill-rule:evenodd;clip-rule:evenodd;stroke-linejoin:round;stroke-miterlimit:2;"><path id="Hand" d="M612.031,612.031c-3.408,2.791 -6.561,5.926 -10.224,8.373c-2.491,1.663 -16.164,10.795 -35.792,10.992c-3.936,0.04 -26.907,0.271 -45.621,-18.427c-13.379,-13.367 -26.158,-27.321 -39.185,-41.031c-14.537,-15.298 -29.274,-30.411 -43.508,-45.991c-28.744,-31.465 -56.999,-63.374 -85.415,-95.136c-38.584,-43.127 -76.946,-86.454 -115.586,-129.532c-37.793,-42.134 -75.664,-84.199 -113.713,-126.103c-39.152,-43.119 -39.364,-42.918 -79.794,-84.848c-1.421,-1.474 -9.544,-9.899 -9.544,-23.745c-0,-4.246 0.783,-8.58 2.386,-12.512c0.014,-0.034 7.158,-10.883 7.173,-10.893c3.619,-2.383 6.85,-5.507 10.863,-7.143c3.932,-1.603 8.266,-2.386 12.512,-2.386c4.275,-0 8.635,0.793 12.602,2.386c4.09,1.643 7.829,4.22 11.128,7.144c12.1,10.724 23.139,22.592 34.918,33.669c16.511,15.527 33.165,30.903 49.945,46.139c41.904,38.049 83.969,75.92 126.103,113.713c43.078,38.64 86.405,77.002 129.532,115.586c31.762,28.416 63.671,56.671 95.136,85.415c15.58,14.234 30.693,28.971 45.991,43.508c13.705,13.022 27.654,25.796 41.016,39.17c18.713,18.729 18.482,41.698 18.442,45.636c-0.197,19.623 -9.329,33.301 -10.992,35.792l-8.373,10.224Z" style="fill:#ff2600;"/></svg>