<?xml version="1.0" encoding="UTF-8" standalone="no"?><!DOCTYPE svg PUBLIC "-//W3C//DTD SVG 1.1//EN" "http://www.w3.org/Graphics/SVG/1.1/DTD/svg11.dtd"><svg width="100%" height="100%" viewBox="0 0 934 463" version="1.1" xmlns="http://www.w3.org/2000/svg" xmlns:xlink="http://www.w3.org/1999/xlink" xml:space="preserve" xmlns:serif="http://www.serif.com/" style="fill-rule:evenodd;clip-rule:evenodd;stroke-linejoin:round;stroke-miterlimit:2;"><path id="TM" d="M138.544,461.426l-0,-362.601l-136.77,0l0,-98.825l389.555,0l-0,98.825l-140.725,0l0,362.601l-112.06,-0Z" style="fill-rule:nonzero;"/><path d="M470.301,461.426l-0,-461.426l100.144,0l168.09,273.56l-71.459,-0.66l170.069,-272.9l96.188,0l0,461.426l-109.032,-0l-0,-143.773c-0,-39.551 0.989,-75.147 2.966,-106.788c1.978,-31.64 5.384,-63.061 10.217,-94.262l13.009,34.226l-128.241,198.536l-43.506,0l-125.152,-197.414l12.556,-35.348c4.834,29.443 8.239,59.655 10.217,90.637c1.977,30.981 2.966,67.786 2.966,110.413l0,143.773l-109.032,-0Z" style="fill-rule:nonzero;"/></svg>